<?xml version="1.0" standalone="no"?>
<!DOCTYPE svg PUBLIC "-//W3C//DTD SVG 20010904//EN"
 "http://www.w3.org/TR/2001/REC-SVG-20010904/DTD/svg10.dtd">
<svg version="1.0" xmlns="http://www.w3.org/2000/svg"
 width="1280.000000pt" height="1258.000000pt" viewBox="0 0 1280.000000 1258.000000"
 preserveAspectRatio="xMidYMid meet">
<metadata>
Created by potrace 1.15, written by Peter Selinger 2001-2017
</metadata>
<g transform="translate(0.000000,1258.000000) scale(0.100000,-0.100000)"
fill="#6e1449" stroke="none">
<path d="M6215 12406 c-393 -91 -726 -499 -900 -1106 -87 -302 -120 -545 -120
-890 0 -235 3 -280 23 -395 101 -555 419 -1219 922 -1920 135 -188 164 -215
228 -215 63 0 105 46 295 318 503 722 805 1404 867 1957 5 50 10 160 10 245 0
513 -125 1040 -335 1410 -169 298 -386 501 -620 577 -98 32 -274 41 -370 19z
m168 -4513 c-7 -2 -21 -2 -30 0 -10 3 -4 5 12 5 17 0 24 -2 18 -5z"/>
<path d="M2553 11056 c-365 -97 -573 -374 -609 -811 -7 -93 8 -267 37 -410
113 -569 523 -1242 974 -1600 364 -288 805 -509 1425 -714 308 -101 395 -122
523 -127 77 -2 106 0 101 8 -7 11 54 6 90 -8 9 -3 25 5 41 20 23 23 25 31 21
98 -2 40 0 60 3 43 l7 -30 13 35 c22 57 25 268 7 441 -100 934 -329 1612 -702
2079 -88 109 -282 309 -404 414 -322 279 -645 459 -979 548 -103 27 -135 31
-286 34 -155 4 -178 2 -262 -20z"/>
<path d="M9818 10989 c-478 -42 -1053 -362 -1515 -842 -283 -295 -465 -612
-633 -1104 -165 -483 -296 -1169 -269 -1419 4 -44 9 -90 9 -104 l2 -25 8 25
c7 22 8 19 9 -16 1 -60 25 -78 93 -70 33 3 43 2 28 -3 -21 -6 -14 -9 38 -15
100 -13 252 9 492 69 715 180 1297 437 1685 745 299 238 629 666 803 1041 147
316 211 573 212 840 0 442 -212 745 -600 854 -47 13 -235 37 -265 33 -5 0 -49
-4 -97 -9z"/>
<path d="M6230 7754 c-287 -39 -489 -122 -730 -298 -45 -32 -108 -85 -141
-118 -124 -122 -242 -344 -339 -640 -63 -194 -91 -251 -127 -256 -14 -2 -49
24 -119 89 -212 196 -597 445 -1015 653 -391 196 -731 311 -1064 362 -144 22
-478 25 -653 6 -893 -98 -1548 -486 -1683 -998 -26 -100 -29 -260 -5 -358 111
-463 652 -834 1426 -977 340 -63 748 -67 1046 -10 371 71 857 273 1319 549
293 175 507 327 645 459 48 46 95 83 103 83 16 0 53 -45 75 -90 7 -14 35 -92
63 -175 60 -180 118 -305 195 -422 156 -240 442 -449 749 -546 380 -121 387
-122 513 -83 429 134 444 139 673 273 197 114 232 148 337 335 141 250 189
375 242 627 27 124 25 206 -6 353 -49 232 -101 361 -285 707 -57 106 -88 132
-279 235 -302 162 -441 211 -684 241 -138 17 -119 17 -256 -1z m-1345 -1374
c7 -22 -12 -55 -47 -77 -16 -12 -14 -6 10 18 17 19 32 41 32 48 0 7 -19 31
-42 54 l-43 40 42 -32 c23 -17 45 -41 48 -51z m-75 -94 c0 -2 -8 -10 -17 -17
-16 -13 -17 -12 -4 4 13 16 21 21 21 13z"/>
<path d="M10260 7564 c-386 -36 -766 -154 -1218 -379 -313 -156 -722 -407
-896 -551 -66 -54 -159 -162 -151 -174 3 -4 -11 -21 -30 -39 -50 -45 -46 -69
18 -126 28 -26 44 -42 35 -35 -57 40 35 -83 104 -142 216 -181 695 -471 1038
-628 519 -238 847 -320 1284 -320 624 0 1198 165 1596 459 204 150 358 364
406 567 24 98 21 258 -5 358 -134 509 -795 903 -1671 996 -105 11 -439 20
-510 14z"/>
<path d="M4750 5333 c-136 -23 -546 -154 -815 -261 -428 -169 -777 -362 -1049
-582 -464 -372 -873 -1063 -978 -1650 -25 -141 -29 -379 -9 -490 80 -440 387
-700 825 -700 456 0 990 274 1472 755 167 166 235 247 347 410 277 405 467
998 568 1780 27 211 32 484 9 560 l-15 50 -6 -35 c-4 -24 -7 -7 -8 51 -1 112
-12 124 -96 108 -41 -7 -61 -7 -68 0 -11 11 -124 13 -177 4z"/>
<path d="M7483 5325 c-20 -14 -23 -26 -24 -78 0 -42 -3 -56 -9 -42 -7 18 -9
18 -21 -10 -23 -50 -17 -385 10 -590 79 -606 202 -1075 384 -1466 289 -620
966 -1223 1597 -1423 167 -53 287 -70 449 -63 158 7 222 22 346 82 162 79 269
185 350 350 24 49 53 123 64 163 139 509 -102 1251 -612 1887 -252 315 -548
537 -1032 775 -225 111 -424 191 -725 291 -336 111 -412 130 -555 136 -91 3
-116 2 -105 -7 15 -11 -5 -9 -75 6 -11 3 -30 -2 -42 -11z"/>
<path d="M6300 4823 c-31 -35 -36 -39 -19 -13 l24 35 -49 -35 c-217 -155 -667
-886 -883 -1435 -168 -426 -230 -786 -205 -1178 29 -442 116 -800 272 -1122
276 -572 702 -836 1140 -709 205 60 416 231 572 464 265 399 410 935 411 1525
0 245 -9 331 -59 554 -94 420 -338 949 -682 1476 -154 236 -251 354 -357 431
l-39 29 23 -35 c18 -26 13 -23 -19 13 -27 31 -50 47 -65 47 -15 0 -38 -16 -65
-47z"/>
</g>
</svg>
